<?xml version="1.0" standalone="no"?><!DOCTYPE svg PUBLIC "-//W3C//DTD SVG 1.1//EN" "http://www.w3.org/Graphics/SVG/1.1/DTD/svg11.dtd"><svg class="icon" height="512" viewBox="0 0 1024 1024" version="1.1" xmlns="http://www.w3.org/2000/svg"><path d="M1018.7 330.5c-2.1 0.9-4.5 0.3-6-1.2L918.3 234 544.6 564.1l-210-183.5L2 662V540.4l332.6-281.5 210 183.6 309.3-273.3L739.5 53.8c-1.5-1.6-2-3.9-1.2-6.1 0.9-2.2 2.9-3.5 5.1-3.5h273.1c1.4 0 2.8 0.5 3.8 1.6s1.6 2.5 1.6 3.9v275.6a5.4 5.4 0 0 1-3.2 5.2zM937 979.7H769.6L767 512.2l170-170v637.5z m-255-425v425H514.1V635.2l40.4 47L682 554.7z m-255 0v425H258.4V542.8l76.2-64.4 92.4 76.3z m-255 425H2.9V759.1L172 639.7v340z" /></svg>